<svg xmlns="http://www.w3.org/2000/svg" width="30" height="180" viewBox="0 0 30 180"><path fill="#6D6E71" d="M29.5 125c-1.1.5-2.2.8-3.5 1 1.3-.8 2.2-2 2.6-3.3-1.2.7-2.4 1.2-3.8 1.5-1.1-1.2-2.7-2-4.4-2-3.3 0-6 2.7-6 6 0 .5.1 1 .2 1.4-5.2-.2-9.7-2.6-12.6-6.3-.5.9-.8 2-.8 3 0 2.1 1.1 4 2.7 5.1-1 0-2-.3-2.7-.8v.1c0 2.9 2 5.4 4.9 6-.5.1-1.1.2-1.6.2-.4 0-.8 0-1.2-.1.8 2.4 3 4.2 5.7 4.2-2 1.7-4.7 2.6-7.5 2.6-.5 0-1 0-1.5-.1 2.7 1.8 5.9 2.7 9.3 2.7 11.1 0 17.3-9.3 17.3-17.3v-.8c1-.9 2-1.9 2.9-3.1z"/><path fill="#2BA9E1" d="M29.5 155c-1.1.5-2.2.8-3.5 1 1.3-.8 2.2-2 2.6-3.3-1.2.7-2.4 1.2-3.8 1.5-1.1-1.2-2.7-2-4.4-2-3.3 0-6 2.7-6 6 0 .5.1 1 .2 1.4-5.2-.2-9.7-2.6-12.6-6.3-.5.9-.8 2-.8 3 0 2.1 1.1 4 2.7 5.1-1 0-2-.3-2.7-.8v.1c0 2.9 2 5.4 4.9 6-.5.1-1.1.2-1.6.2-.4 0-.8 0-1.2-.1.8 2.4 3 4.2 5.7 4.2-2 1.7-4.7 2.6-7.5 2.6-.5 0-1 0-1.5-.1 2.7 1.8 5.9 2.7 9.3 2.7 11.1 0 17.3-9.3 17.3-17.3v-.8c1-.9 2-1.9 2.9-3.1z"/><g fill="#6D6E71"><path d="M5.7 76.3h2l-.1 8.7h13v-8.7h2.1v10.8h-17v-10.8z"/><path d="M8.9 81.5h10.2v2.2h-10.2z"/><path d="M9.131 77.617l10.253.989-.211 2.19-10.253-.989z"/><path d="M9.993 73.143l9.913 2.797-.598 2.117-9.913-2.797z"/><path d="M12.419 68.193l8.817 5.325-1.137 1.883-8.817-5.325z"/><path d="M17.323 63.418l5.999 8.373-1.788 1.281-5.999-8.373z"/><path d="M24.363 61.146l1.697 10.159-2.17.363-1.697-10.159z"/></g><g><path fill="#919191" d="M5.6 106.3h2l-.1 8.7h13v-8.7h2.1v10.8h-17v-10.8z"/><path fill="#919191" d="M8.8 111.5h10.2v2.2h-10.2z"/><path fill="#A78B68" d="M8.931 107.613l10.253.989-.211 2.19-10.253-.989z"/><path fill="#C19653" d="M9.9 103.13l9.913 2.797-.598 2.117-9.913-2.797z"/><path fill="#D48C28" d="M12.305 98.216l8.817 5.325-1.137 1.883-8.817-5.325z"/><path fill="#FE8908" d="M17.272 93.383l5.999 8.373-1.788 1.281-5.999-8.373z"/><path fill="#FF7A15" d="M24.215 91.155l1.697 10.159-2.17.363-1.697-10.159z"/></g><g fill="#6E6F72"><path d="M8.7 32.8zM25 35.4l-.1-.1.2.2zM25.2 35.7l-.1-.2v.1zM23.1 37.3v-.1zM19.7 32.1c-1.7-.7-3.5-1.1-5.4-1.1-1.1.3-2.8.6-4.4 1.2l-.1.1c1.6-.6 3.3-1 5.2-1 1.7 0 3.3.3 4.7.8zM23.1 37.1h-.1l.1.1zM9.2 35.4v-.1l-.1.1zM18.3 33.7v.1h.2l-.1-.1zM14.6 33h-.1v.1zM16.5 32.9h.1v.1h-.1zM19.8 32.2h.1-.1zM18.2 33.8h.1v.1h-.1zM14.4 33.1v.2h.1v-.2zM19.8 35.3h-.1l.1.1zM19.7 35.3zM23 37.6v-.30000000000000004h-.1v.1l-.1-.1h.1l-.1-.1h-.6l.1.1.1.1.1.1h-.1v.1h-.1l-.1-.1h-.1l.1.1.1.1h.2v-.1l.1.1.1.1h.1l.1-.1.1.1v-.1zM12.9 33.5h-.1l-.1.1h.1zM8.8 32.7h.2-.2zM8.8 32.7zM19.8 32.1zM25.5 37.2l.1.1h.1l-.1-.1zM20 32.2s-.1 0-.1-.1c0 .1.1.1.1.1zM9 35.2v.1l.1-.1zM26.2 36.9c-1.6-2.1-3.7-3.7-6.2-4.7 2.5 1.1 4.6 3 6.1 5.2h-.2l-.1-.1v.1l-.1-.1v.1l.1.1v.30000000000000004h-.30000000000000004l-.1-.1-.1-.1-.1-.1h-.2v.1h-.30000000000000004l.1.1v.1h-.1v.1l.1.1.1.1h.4v-.1l.1.1h.1l.1.1v.1l.1.1.1.1.1.1v.1l.1.1h-.2v.1h-.4v.1h-.30000000000000004l-.1-.1v.30000000000000004l.1.1v.4h-.1v.30000000000000004h.1l.2.2v.30000000000000004l.4.8v.7999999999999999h-.30000000000000004v.2h-.1l-.1-.1-.1-.1v.1h-.1l-.1-.1v-.1h.1l-.1-.1-.1-.1-.1-.1h-.1l-.1-.1-.1-.1v-.30000000000000004h.1v-.2l.1-.1.1-.1v-.1l.1-.1v-.30000000000000004l-.1-.1-.1-.1-.1-.1-.1-.1h-.4v.4h-.1l-.1-.1v-.30000000000000004h.1v-.2l-.1-.1h-.1v-.1h.1v-.4l-.1-.1v-.1l-.1-.1-.1-.1-.1-.1v-.1l-.1-.1v-.4h-.1v-.1h-.1v-.1h-.1l-.4.3h-.2l-.1-.1-.1-.1v-.2l-.1-.1v-.1h-.30000000000000004l-.1-.1h-.1l-.1-.1-.1-.1-.1-.1v-.1l-.1-.1-.1-.1h.1l-.1-.1-.1-.1-.1-.1-.1-.1-.1-.1-.1-.1-.1-.1-.1-.1h-.1l-.1-.1v.1h-.2v-.1l-.1-.1-.1-.1-.1-.1h-.1l-.1-.1h.1l-.1-.1h.1l-.1-.1v-.30000000000000004l.2.3v-.1h.1v-.7h.30000000000000004l.1.1.1.1v.6h.1v-.1l.1-.1h.30000000000000004v-.2l-.1-.1h-.1v.1h-.2v-.4h-.2l-.1-.1-.1-.1h-.1v-.1h-.2v-.2h-.30000000000000004l-.1.1h-.1l-.1-.1h.1l-.2-.1h-.2l-.1-.1h-.2v.2h-.5l-.1-.1h-.6l-.1-.1h.9999999999999999v-.1l-.1-.1v-.1h-.1v-.2h-.1v.1h-.7l-.1-.1h-.1v-.2h.2l-.1-.1h-.1l-.1-.2v.1h-.2l.1.1h-.2v.1h-.4v.1h-.9999999999999999v.1l-.1.1h-.30000000000000004l.1-.1h-.4l-.1.4h-1v-.2h-.30000000000000004v.2h-.2v.1h-.2v-.2h-.30000000000000004l-.1.1h-.7v.1l-.1.1-.1.1h-.1l-.1.1-.1.1-.1.1-.1.1v-.1h-.1l-.1.1h.1l-.1.1-.1.1-.1.1v.1l-.1.1-.1.1h-.1l-.1.1-.1.1v-.1l-.1.1-.1.1-.1.1v.1l-.1.1-.1.1-.1.1h-.1v-.1h-.30000000000000004v-.1l-.3.1.1-.1h.1l.1-.1v-.2h-.5l.1-.1v-.7l.1-.1.1-.1v-.1h.1v-.1h.1v-.1h-.30000000000000004l-.4-.5h-.30000000000000004v-.1h-.2l.1-.1h1.0999999999999999v.5h.30000000000000004v-.1h-.2v-.1h.30000000000000004v-.1h.1v-.30000000000000004h-.30000000000000004l.1-.1h.1l.1-.1h.7l.2-.5h.1l.1-.1.1-.1.1-.1h-.2l-.1.1h-.7l-.9.4c-4.6 2.3-7.9 7.1-7.9 12.6 0 7.7 6.3 14 14 14s14-6.3 14-14c0-3.2-1.1-6.1-2.8-8.4zm-4.4 1.8l.1.1h.1v-.1l-.1-.1v-.2h.1v-.2h.1l.1.1.1.1v.1h.2l.1.1h.7l.1.1v.1l.1.4v.1l-.1.1v.1l.1.1-.1.1v-.2l-.1-.1v.1h-.1v.1h-.1v-.2l-.1-.1h-.1l.1-.1v-.1l-.1-.1h-.2l-.1-.2v.2h-.1l-.1-.1h-.1l.1.1h-.1l-.1-.1v.1l-.1-.1-.1-.1v.1h-.1l-.1-.2zm.7 1.1v-.4h-.1l-.1-.1v-.1l.1-.1h.1l.1.1v.1h.1l.1.1.1.1.1.1v.4h-.2l-.1-.1h-.1v-.1h-.1zm-2.4-3.6zm-.5 2.4v-.2h.1v-.2h.1v-.1l.1.1h.1l.1.1.1.1v.4l-.1.1h-.1l-.1.1v-.1l-.1-.1-.1.1v-.2h-.1l-.1-.1h.1zm-.1-4.5l.1.1h-.1v-.1zm-.1 4.6h.2-.2zm-2.1-3.6h.1l.1.1v.1h.2l.1-.1.1-.1.1.1v.1h-.30000000000000004l.3.2h.30000000000000004l-.1.1h-.2l-.1-.1v.1h-.4v-.1h-.2v-.1l-.1-.1v-.1l.1-.1zm-.3-.5v.1l-.3-.1h.30000000000000004zm-.4-.3l.1.1h-.2v-.1h.1zm-.8 2.4v-.1h.1v-.2l.1-.1v-.1h.1l.1-.1h.4v.1l-.1.1.1.1v.1l.1.1v-.4l.1-.1h.1l.1.1v.1h-.1l.1.1.1.1v.1h.1l.1.1h.2l.1.1h-.1v.1l.1.1h.2l-.1-.1.1.1.1.1v.1h.1l.1.1v.2h.1l.1.1.1.1h.1l.1.1.1.1v.1h-.1v.1h.4v.7l-.1.1v.6l-.1.1-.1.1-.1.1v.1h-.1l.1.1.1.1v.30000000000000004l.1.1v.4l-.1.1h-.2l-.1-.1h-.2l-.2-.1-.1-.1-.1-.1-.1-.1-.2-.1v-.1l-.1-.1-.1-.1-.1-.1-.2-.1v-.6h.1l-.1-.2h-.1v.1l-.1.1-.1-.1v-.2h.2l-.1-.1h-.1l-.1-.1v.1h-.2v-.1l-.1-.1v-.2l-.1-.1v-.1l-.1-.1-.1-.1v-.1h-.4v.1h-.4l.1-.1v-.1h-.1l-.1-.1v-.1h.1l.1-.1h.1v-.2h-.1v-.1l.1-.1v-.1h.1v-.2l.1-.1.1-.1h.1zm2.7 7.6v.2h-.1v-.1l-.1.1v-.1h-.2v.1h-.1l.1-.1v-.1h-.6000000000000001l.2-.3h-.1v-.6l.1-.1h.1v.4l.1-.1h.1v.4h.30000000000000004v.1l.2.2zm-2.7-4.3v.2l.1.1.1.1v.2l.1.1v.2h-.1l-.2-.2-.1-.1h-.1l.1.1.1.1.1.1.1.1.1.1h-.30000000000000004v-.1h-.2l-.1-.1v-.1l-.1-.1h-.1l-.1-.1h-.1l-.1.1h-.2l-.1-.1v-.1h.1v-.1h.2l.1-.1-.1-.1.1-.1.1-.1v-.30000000000000004l-.1-.1-.1-.1-.1.1v-.1l-.1-.1v-.1l-.1.1h-.1l-.1-.1h-.1l-.2-.1h-.1l-.1-.1-.1-.1v-.2l-.1-.1h-.1v-.30000000000000004l.1-.1h.1l.1.1.1.1h.1l-.1.1v.30000000000000004l.1.1v-.30000000000000004l.1-.1.1-.1h.1v.4l.1-.1h.1l.1-.1h-.2v-.2h.30000000000000004v.2h.2v.2h.1l.1.1.2.1.1.1.1.1v.1l.1.1h-.1v.1l.1.1h.1l.1.1.1.1.1.1v.2l-.1.1v.1l-.1-.1v-.2l-.2-.1zm-1-.1v-.1l.1-.1h.1v.2h-.2zm-1.4-2v-.30000000000000004h.2l.1.1v.2l-.1.1-.2-.1zm.1.6l-.1.2h-.2v-.2h-.1v-.2l.1.1v-.2h.30000000000000004v.30000000000000004zm.3-.6v.2-.2zm1.2-4.4h.2v.1h.30000000000000004l.1.2h-.4v-.2h-.1l-.1-.1zm-.8 4.2v-.1h.1l-.1-.1v-.4l.1-.2v-.1h.2l.1-.1h.7999999999999999v.2l-.1.1-.3.1v.1l-.1.1h-.1v.2h-.1v.1l-.1.1.1.1-.1.1h-.1l.1.1v.2h-.1l-.1-.1-.1.1h-.30000000000000004v-.4h-.1v-.2h.1v.1h.2zm-.7-.6v.1h.1v-.1l.1-.1v.1h.1v.30000000000000004l.1-.1v-.1l.1.1v.2h-.30000000000000004v-.1h-.1l-.1-.1v-.1h-.1l-.2-.1h.3zm-.7 0h.1v.1h-.2v.2h.1v-.1h.1v.1l.1.1v-.2h.1v-.1h.2l-.1.1v.2l.1.1-.1.1-.1.1h-.1l.1.1h-.30000000000000004l-.1-.1v-.1h.1v-.1h-.1l-.1-.1v-.2h-.1v-.1h.2l.1-.1zm-1.1.8v-.1s.1-.1.1 0l.1-.1.1-.1v-.1h.2v.1l.1.1v.2h-.30000000000000004l-.1.1-.2-.1zm-1.1-2.9zm-2.6 1.4zm-1 .9l.1.1h-.1v-.1zm-.3-.2zm4.4 17.7l-.1-.1.1.1zm13-1.5v.4l-.1.1-.1.1-.1.1-.1.1-.1.1-.1.1-.1.1-.1.1-.1.1-.1.1-.1.1-.1.1v.5l-.1.1v.2l-.1.1v.30000000000000004l-.1.1-.1.1-.2.2h-.2l-.1.1h-.1l-.1.1h-.2l-.1.1h-.1l-.1.1h-.1l-.1.1-.1.1-.1.1-.1.1-.1.1-.1.1v.1l-.1.1h-.1l-.1.1-.1.1-.1.1h-.1l-.4.2-.1.1-.1.1-.1.1h-.2l-.1.1h-3.1000000000000014l.1-.1h.2v-.4h-1l-.2-.1h-.2l-.1-.1v-.1l-.1-.1v-.1h-.1l-.1-.1v-.1l-.1-.1v-.30000000000000004l-.1-.1-.1-.1v-.1l-.1-.1-.1-.1h-.1l-.1-.1v-.2l.1-.1h.2v-.2h-.1v.1l-.1-.1h-.1v-.2h.1v-.1l.1-.1v-.1h.30000000000000004v-.1h.1v-.1l.1-.1h.1l.1-.1.1-.1-.1-.1v-.5l-.1-.1-.1-.1-.1-.1.1-.1h-.1l-.1-.1-.1-.1h-.1l-.1.1h-.2v.1l.1.1h-.2v-.1h-.1l-.1-.1h-.30000000000000004l-.1-.1h-.1v-.1l-.1-.1-.1-.1-.1-.1-.1.1h-.1v-.30000000000000004l-.1-.1-.1-.1-.1-.1-.1-.1-.1-.1h.1l-.1-.1h-.2l-.1-.1h-.1l-.1-.1-.1-.1h-.1l-.1-.1-.1-.1.3.2-.1-.1-.1-.1-.1-.1-.1-.1-.1-.1h-.4l-.1-.1-.1-.1-.1-.1-.1-.1-.1-.1-.1-.1-.1-.1-.1-.1-.1-.1-.1-.1-.1-.1h-.1l-.1-.1-.1-.1-.1-.1-.1-.1-.1-.1-.1-.1v-.1h.1v-.1h.1v-.1l-.1-.1v-.30000000000000004l-.1-.1v-.1l-.1-.1-.1-.1-.1-.1v-.2l-.1-.1-.1-.1v-.4l-.1-.1v-.1l-.1-.1-.1-.2v-.7l-.1-.1v-.1h-.1l-.1-.1v.5l.1.1v.6l.1.2v.5h.1v.2l-.1.1v-.2l-.1-.1-.1-.1-.1-.1-.1-.1h.1v-.2l-.1-.1v-.1h-.1l-.1-.1v-.2l-.1-.1h.1v-.4l-.1-.1v-1.2000000000000002h.2l-.1-.1-.1-.1v-.7999999999999999l-.1-.1v-.7999999999999999l.1-.1.1-.1v-.2l.1-.1.1-.1.1-.1h.3l.1-.1.1-.1v-1.5000000000000002l.1.1v-.2l.1-.1v-.5h.1v-.1l.1-.1h-.1v-.2l-.1.1v-.4l.1-.1h-.1l.1-.1h.1v-.1h-.2l.1-.1.1-.1h.1v-.4l.1-.1h-.1v-.8999999999999999l-.1.1h-.1v-.1h-.2l.1-.1h.1v-.1h.1l.1-.1h-.4v.1h-.5s.2.1.1.1h.2v.1l-.1-.1v.1h-.30000000000000004l.1-.2-.1-.1h-.2v-.1l-.1-.1h.1l.1.1h.2l.1-.1.1-.1v-.1h-.1l.1-.1v-.1l.1-.1h.1l.1-.1h-.1v-.1l.1-.1v-.1l.1-.1.1-.1h.4l-.1.1h.1v.1h.1l.1-.1v-.30000000000000004h.2v-.2h.1l.1.1.1.1v.1h-.1v.1h.1l.1-.1.1-.1.1-.1.1-.1.2-.1h.1v.1l.2-.1h.30000000000000004v.1l.1.1v.1h.1v.1l-.1.1v.1l-.1.1v1.3l.1-.1h.2v.1h.30000000000000004l-.1.1h.1l.1-.1v.4l.2-.1.1.1v.2l.1.1.1.1.1.1v-.1l-.1-.1v-.1l.1-.1h.1l.1.1h.1v-.1h-.1l-.1-.1v-.2l.2-.1h.4l-.1.1h.1v.1h.1l.1.1.1-.1.1-.1h.1v.2h-.3v.2l-.1.1v.1l.1.1.1.1-.1.1h-.1v.1h-.2v.1l.1.1.1.1.1.1h.1l.1-.1.1-.1-.1-.1h.1l.1.1v.1h-.1v.1l.1.1.1-.1.1-.1v-.1l.1-.1-.1-.1v-.1l.2-.1.1-.1h.1l-.1.1v.4l-.1.1.1.1v.2l.1-.1.1.1v.2l.1.1v.2l.1-.1v-.2l.1-.1v-.30000000000000004h.2v.1h.1v.1h-.1v.1l.1.1v.1h-.2l-.1.2-.1-.1v.1l.2.1.1.1.1.1v.1l.1.1-.1.1-.1-.1-.1-.1h-.1l-.1.1h-.2v-.1h-.1l.2-.1v-.30000000000000004l-.1.1v.1l-.1.1-.1.1h-.2l-.1.1v.1h-.2v.1h-.1l-.1.1-.1.2-.1.1-.1.1-.1.1v.2h.2v.4h.2l.1.1h.2l.1.1.1.1.1.1.1.1.1.1h.2l.1.1v.2l-.1.2v.1l.1.1.1.1v.1l.1.1v-.1l.1-.1.1-.1-.1-.1v-.4l.1-.1.1-.1.1-.1.1-.1v-.5h-.1v-.1h.1l.1-.1v-.2l-.1-.1v-.2l-.1-.1v-.1l.1-.1h.4l.1.1.1.1v.1l.1.1h.2v.4l.1.1h.1l.1.1.2.1v-.1l.1-.1v-.1l-.1-.1v-.2l.1.1.1.1.1.1.1.1.1.1h.3v.1h.1v.2l.1.1h.1v.1h.1l.1.1h.2l-.1.1h.1v.1h.1l.1.1v.2l-.1.1-.1.1-.1.1-.1.1v.2l-.1.1h-.8999999999999999l-.1.1-.1.1v.1h-.1l-.1.1-.2.1-.1.1v.1l-.1.1v.1l-.1.1h.1l.1-.1.1-.1.1-.1.1-.1.4-.2h.1l.1-.1h.30000000000000004l.1.1v.1l-.1.1-.1.1v.2l.2-.1h.2l-.1.1v.1h-.1l.1.1h.1l.1-.1h.1v-.1l.1-.1.1.1-.1.1-.1.1v.1h-.2l-.1.1h.3l-.1.1h-.1v.1l-.1.1h-.2l-.1.1h-.2l.1-.1.1-.1v-.1h.1l.1-.1h.1l-.4-.1v.1h.1l-.1.1h-.1l-.1.1v.2h.1l-.1.1v.30000000000000004h.1v.1h.1v.7h-.6l-.1.1-.1.1h.1v.1l-.1.1-.1.1v-.1h-.1v.1l.1.1v.1l-.1.1v-.1h-.1v-.1h-.1v-.30000000000000004h-.1v.30000000000000004h-.1l.1.1v.2l.1.1v.4h-.1l-.1.1h.1l-.1.1h-.1l-.1.1-.1.1h-.1l-.1.1-.1.1-.1.1-.1.1-.1.1-.1.1-.1.1-.1.1v.4l.1.1v.5l-.1.1h-.2v-.1l-.1-.1v-.1l-.1-.1-.1-.1v-.2h-.1v-.30000000000000004l-.1-.1-.1-.1h-.30000000000000004v-.1l-.1-.1-.1-.1h-.30000000000000004v-.1h-.30000000000000004v.1h-.4v-.1l-.1-.1h-.2l-.1-.1h-.30000000000000004v-.1h-.1v.1h-.30000000000000004l-.1.1h-.1l-.1.1v.4l-.1.1-.1.1-.1.1v.30000000000000004l-.1.1v.1h.1v.30000000000000004l.1.1v.2l.1.1.1.1.1.1.1.1h.4l.1.1h.1v-.1h.2v-.4h.7999999999999999v.1l-.1.1v.4l-.1.1v.2l-.1.1-.1.1.1.1.1.1h.1l.1.1h.6l.1.1h.1v.2l-.1.1v.6l.1.1v.1l.1-.1.1.1v.1h.1l.1.1h.30000000000000004l.1-.1h.30000000000000004l.1.1.1.1.1.1.1.1v-.1l.1-.1.1-.1h.1v-.2l.1-.1h.2l.1-.1h.30000000000000004v.1h.1l.1-.1.1-.1h.1l.1-.1v.1l-.1.1h.6000000000000001v-.1l.1-.1v.1h.30000000000000004v.2h.6l.1-.1.1-.1h.4v-.1h.2v.1l-.1.1h-.1v-.1l-.2.1.3.2h.30000000000000004v.2l.2-.1h.30000000000000004v.2h1.6000000000000003l.1.1v.1l.1.1v.1h.1v.1l-.1.1-.1.1-.1.1v.2l.1-.1.1.1v-.2l.1-.1h.30000000000000004v.2h.1l.1-.2.1-.1h.4l.1-.1v.1h.1v.1l.1-.1.1-.1h.5l.2-.7h.8999999999999999l.1-.1h.1v.1zm-16-12.9l-.1.1v.2h-.1v.1l-.1.1v-.30000000000000004l.1-.1v-.1l.1-.1.1.1zm6.2 2.1l.1-.1v.1h-.1zm-.1.7h-.2.2zm-.2-2.2l.1-.1h.1l-.2.1zm3.2 10.4l-.1.1h-.30000000000000004s0-.1.1-.1h.30000000000000004zm-1.3.1l-.1.2-.1-.1-.1-.1v-.1l-.1-.1h-.1l.1-.1h.1l.1.1h.5v.1h.1l-.1.1h.2l.1.1-.1.1-.1-.1h-.2l-.2-.1zm-.3-.6l.1-.1h.1l-.2.1zm-.7.2h-.7l.1-.1.1-.1v-.1h-.2l-.1-.1v-.1h.1l.1.1.1.1h.1l.1.1h.2l.1.2.1-.1-.1.1zm-.1.4l-.2.1h-.2l-.2-.1h.6000000000000001zm-.3-1.3l-.2-.1v-.1h.1v.1l.1.1zm-.1-.6l.1.1v.1l-.1-.2zm.2.3l.1.1v.1l-.1-.2zm-.6.7h-.2l-.1-.1h.1l.2.1zm11.7-12.5h.30000000000000004l.1.1v.1h-.1l-.3-.2zm.3 1.2v-.30000000000000004h.1l.1.1v.2h-.1v.1l-.1.1v-.2zm-.5 1.3l-.1-.2h.1v.2zm.1-.9l-.1-.1-.1-.2h.2l.1.1.1.1.1.1v.2h-.1l-.2-.2zm2.6 6.6v.30000000000000004l-.1.4v.4l-.1.1v.7999999999999999h-.8999999999999999v-.30000000000000004h-.7v-.30000000000000004l-.1-.1h-.1v-.7999999999999999l-.1-.1-.1-.1v-.2h-.2v-1.7000000000000006l.1-.1v-.6h-.1l-.1-.2v-1.3h.2v-.30000000000000004h.1v-2.300000000000001h.1v-.1l.1.1v.1h.2l.1.3.1.1v.2l.1.1v-.1h.1v-.4l.1.1v-.6l-.2-.2-.1-.1v-.4h.1v-.5c1 1.9 1.6 4.1 1.6 6.5 0 .5-.1.9-.1 1.3zM12.3 38.9h-.6l-.1.1h.1l.1.1h.2v.1l.1.1.1-.1-.1-.1h.30000000000000004l-.1-.1zM14.7 37.1l.1-.1h-.30000000000000004v.1h.1zM14.4 37.8h-.4l.1.1h.4v-.1zM16.7 44.6l.1-.1h-.2zM8.6 37.8v-.1h-.2l.1.1zM20.7 35.5v.1h.1v.1h.1l.1.1v.1h.1l.1.1h-.2l.1.1.1.1h.2l.1.1h.5l.1.1.1.1.1.1h.2l.1.1.1.1.1.1v.1l.2.1v-.2h.1v-.2l-.1-.2-.1-.1h-.2l-.1-.1-.1-.1v-.1h.1l-.1-.1h-.4l-.2-.1v-.4h-.1l-.1-.1v-.1h-.1v.1h-.1v.1l.1.1.1.1.1.1v.2h-.4l-.1-.1-.1-.1-.1-.1-.1-.1-.1-.1h-.1zM8.2 40.1v.1l.1-.2zM16.9 44.8h.1l-.2-.1zM14.6 37.3v-.1h-.1v-.1h-.1l-.1.1h.1v.2l.1-.1zM15.9 53.2v.1h.1v-.1l-.1-.1v-.1l-.1.1zM15.9 52.9l-.2.1h.1zM14.4 37.4h-.1l-.1.1h.1zM8.4 39.4l-.1.1v.1l.1-.1zM17.5 33.3l.1-.1h-.30000000000000004v.1h.1zM15 33.1v-.1h-.30000000000000004l.2.1zM17.7 35.3zM18.5 37.9l.1.1v-.2h-.1zM17.9 33.1h.2v-.1h-.4v.1h.1zM17.7 33.1h-.2l.1.1h.1zM15.4 46.3l.1-.1h-.30000000000000004v.1h.1zM13.8 45v-.1h-.1l-.1.1h.1zM16.4 36.4l.1-.1h-.1zM8 42.3v.1l.2-.1v-.30000000000000004l-.1-.1h-.1v.2h-.1l.1.1zM13.9 38.7l.1-.1.1-.1h-.1l-.1.1-.1.1zM17.5 44.3zM12.1 48.8l-.1-.1-.1.1h.1z"/></g><g fill="#fff"><path d="M23.1 7.1h-.1l.1.1zM19.7 2.1c-1.6-.7-3.5-1.1-5.4-1.1-1.1.3-2.8.6-4.4 1.2l-.1.1c1.6-.6 3.3-1 5.2-1 1.7 0 3.3.3 4.7.8zM9.2 5.4v-.1l-.1.1zM16.5 2.9h.1v.1h-.1zM19.8 2.1zM14.4 3.1v.2h.1v-.2zM8.8 2.7h.2-.2zM12.9 3.5h-.1l-.1.1h.1zM19.8 2.2h.1-.1zM25 5.4l-.1-.1.2.2zM25.2 5.7l-.1-.2v.1zM8.7 2.8zM8.8 2.7zM9 5.2v.1l.1-.1zM25.5 7.2l.1.1h.1l-.1-.1zM23 7.6v-.30000000000000004h-.1v.1l-.1-.1h.1l-.1-.1h-.6l.1.1.1.1.1.1h-.1v.1h-.1l-.1-.1h-.1l.1.1.1.1h.2v-.1l.1.1.1.1h.1l.1-.1.1.1v-.1zM14.6 3h-.1v.1zM19.7 5.3zM20 2.2s-.1 0-.1-.1c0 .1.1.1.1.1zM19.8 5.3h-.1l.1.1zM18.2 3.8h.1v.1h-.1zM20.7 5.5v.1h.1v.1h.1l.1.1v.1h.1l.1.1h-.2l.1.1.1.1h.2l.1.1h.5l.1.1.1.1.1.1h.2l.1.1.1.1.1.1v.1l.2.1v-.2h.1v-.2l-.1-.2-.1-.1h-.2l-.1-.1-.1-.1v-.1h.1l-.1-.1h-.4l-.2-.1v-.4h-.1l-.1-.1v-.1h-.1v.1h-.1v.1l.1.1.1.1.1.1v.2h-.4l-.1-.1-.1-.1-.1-.1-.1-.1-.1-.1h-.1zM18.3 3.7v.1h.2l-.1-.1zM23.1 7.3v-.1zM12.3 8.9h-.6l-.1.1h.1l.1.1h.2v.1l.1.1.1-.1-.1-.1h.30000000000000004l-.1-.1zM16.7 14.6l.1-.1h-.2zM8.4 9.4l-.1.1v.1l.1-.1zM8.6 7.8v-.1h-.2l.1.1zM15.9 22.9l-.2.1h.1zM16.9 14.8h.1l-.2-.1zM8.2 10.1v.1l.1-.2zM13.8 15v-.1h-.1l-.1.1h.1zM26.2 6.9c-1.6-2.1-3.7-3.7-6.2-4.7 2.5 1.1 4.6 3 6.1 5.2h-.2l-.1-.1v.1l-.1-.1v.1l.1.1v.30000000000000004h-.30000000000000004l-.1-.1-.1-.1-.1-.1h-.2v.1h-.30000000000000004l.1.1v.1h-.1v.1l.1.1.1.1h.4v-.1l.1.1h.1l.1.1v.1l.1.1.1.1.1.1v.1l.1.1h-.2v.1h-.4v.1h-.30000000000000004l-.1-.1v.30000000000000004l.1.1v.4h-.1v.30000000000000004h.1l.2.2v.30000000000000004l.4.8v.7999999999999999h-.30000000000000004v.2h-.1l-.1-.1-.1-.1v.1h-.1l-.1-.1v-.1h.1l-.1-.1-.1-.1-.1-.1h-.1l-.1-.1-.1-.1v-.30000000000000004h.1v-.2l.1-.1.1-.1v-.1l.1-.1v-.30000000000000004l-.1-.1-.1-.1-.1-.1-.1-.1h-.4v.4h-.1l-.1-.1v-.30000000000000004h.1v-.2l-.1-.1h-.1v-.1h.1v-.4l-.1-.1v-.1l-.1-.1-.1-.1-.1-.1v-.1l-.1-.1v-.4h-.1v-.1h-.1v-.1h-.1l-.4.3h-.2l-.1-.1-.1-.1v-.2l-.1-.1v-.1h-.30000000000000004l-.1-.1h-.1l-.1-.1-.1-.1-.1-.1v-.1l-.1-.1-.1-.1h.1l-.1-.1-.1-.1-.1-.1-.1-.1-.1-.1-.1-.1-.1-.1-.1-.1h-.1l-.1-.1v.1h-.2v-.1l-.1-.1-.1-.1-.1-.1h-.1l-.1-.1h.1l-.1-.1h.1l-.1-.1v-.30000000000000004l.2.3v-.1h.1v-.7h.30000000000000004l.1.1.1.1v.6h.1v-.1l.1-.1h.30000000000000004v-.2l-.1-.1h-.1v.1h-.2v-.4h-.2l-.1-.1-.1-.1h-.1v-.1h-.2v-.2h-.30000000000000004l-.1.1h-.1l-.1-.1h.1l-.2-.1h-.2l-.1-.1h-.2v.2h-.5l-.1-.1h-.6l-.1-.1h.9999999999999999v-.1l-.1-.1v-.1h-.1v-.2h-.1v.1h-.7l-.1-.1h-.1v-.2h.2l-.1-.1h-.1l-.1-.2v.1h-.2l.1.1h-.2v.1h-.4v.1h-.9999999999999999v.1l-.1.1h-.30000000000000004l.1-.1h-.4l-.1.4h-1v-.2h-.30000000000000004v.2h-.2v.1h-.2v-.2h-.30000000000000004l-.1.1h-.7v.1l-.1.1-.1.1h-.1l-.1.1-.1.1-.1.1-.1.1v-.1h-.1l-.1.1h.1l-.1.1-.1.1-.1.1v.1l-.1.1-.1.1h-.1l-.1.1-.1.1v-.1l-.1.1-.1.1-.1.1v.1l-.1.1-.1.1-.1.1h-.1v-.1h-.30000000000000004v-.1l-.3.1.1-.1h.1l.1-.1v-.2h-.5l.1-.1v-.7l.1-.1.1-.1v-.1h.1v-.1h.1v-.1h-.30000000000000004l-.4-.5h-.30000000000000004v-.1h-.2l.1-.1h1.0999999999999999v.5h.30000000000000004v-.1h-.2v-.1h.30000000000000004v-.1h.1v-.30000000000000004h-.30000000000000004l.1-.1h.1l.1-.1h.7l.2-.5h.1l.1-.1.1-.1.1-.1h-.2l-.1.1h-.7c-.2.1-.5.3-.8.4-4.7 2.3-8 7.1-8 12.6 0 7.7 6.3 14 14 14s14-6.3 14-14c0-3.2-1.1-6.1-2.8-8.4zm-4.4 1.8l.1.1h.1v-.1l-.1-.1v-.2h.1v-.2h.1l.1.1.1.1v.1h.2l.1.1h.7l.1.1v.1l.1.4v.1l-.1.1v.1l.1.1-.1.1v-.2l-.1-.1v.1h-.1v.1h-.1v-.2l-.1-.1h-.1l.1-.1v-.1l-.1-.1h-.2l-.1-.2v.2h-.1l-.1-.1h-.1l.1.1h-.1l-.1-.1v.1l-.1-.1-.1-.1v.1h-.1l-.1-.2zm.7 1.1v-.4h-.1l-.1-.1v-.1l.1-.1h.1l.1.1v.1h.1l.1.1.1.1.1.1v.4h-.2l-.1-.1h-.1v-.1h-.1zm-2.4-3.6zm-.5 2.4v-.2h.1v-.2h.1v-.1l.1.1h.1l.1.1.1.1v.4l-.1.1h-.1l-.1.1v-.1l-.1-.1-.1.1v-.2h-.1l-.1-.1h.1zm-.1-4.5l.1.1h-.1v-.1zm-.1 4.6h.2-.2zm-2.1-3.6h.1l.1.1v.1h.2l.1-.1.1-.1.1.1v.1h-.30000000000000004l.3.2h.30000000000000004l-.1.1h-.2l-.1-.1v.1h-.4v-.1h-.2v-.1l-.1-.1v-.1l.1-.1zm-.3-.5v.1l-.3-.1h.30000000000000004zm-.4-.3l.1.1h-.2v-.1h.1zm-.8 2.4v-.1h.1v-.2l.1-.1v-.1h.1l.1-.1h.4v.1l-.1.1.1.1v.1l.1.1v-.4l.1-.1h.1l.1.1v.1h-.1l.1.1.1.1v.1h.1l.1.1h.2l.1.1h-.1v.1l.1.1h.2l-.1-.1.1.1.1.1v.1h.1l.1.1v.2h.1l.1.1.1.1h.1l.1.1.1.1v.1h-.1v.1h.4v.7l-.1.1v.6l-.1.1-.1.1-.1.1v.1h-.1l.1.1.1.1v.30000000000000004l.1.1v.4l-.1.1h-.2l-.1-.1h-.2l-.2-.1-.1-.1-.1-.1-.1-.1-.2-.1v-.1l-.1-.1-.1-.1-.1-.1-.2-.1v-.6h.1l-.1-.2h-.1v.1l-.1.1-.1-.1v-.2h.2l-.1-.1h-.1l-.1-.1v.1h-.2v-.1l-.1-.1v-.2l-.1-.1v-.1l-.1-.1-.1-.1v-.1h-.4v.1h-.4l.1-.1v-.1h-.1l-.1-.1v-.1h.1l.1-.1h.1v-.2h-.1v-.1l.1-.1v-.1h.1v-.2l.1-.1.1-.1h.1zm2.7 7.6v.2h-.1v-.1l-.1.1v-.1h-.2v.1h-.1l.1-.1v-.1h-.6000000000000001l.2-.3h-.1v-.6l.1-.1h.1v.4l.1-.1h.1v.4h.30000000000000004v.1l.2.2zm-2.7-4.3v.2l.1.1.1.1v.2l.1.1v.2h-.1l-.2-.2-.1-.1h-.1l.1.1.1.1.1.1.1.1.1.1h-.30000000000000004v-.1h-.2l-.1-.1v-.1l-.1-.1h-.1l-.1-.1h-.1l-.1.1h-.2l-.1-.1v-.1h.1v-.1h.2l.1-.1-.1-.1.1-.1.1-.1v-.30000000000000004l-.1-.1-.1-.1-.1.1v-.1l-.1-.1v-.1l-.1.1h-.1l-.1-.1h-.1l-.2-.1h-.1l-.1-.1-.1-.1v-.2l-.1-.1h-.1v-.30000000000000004l.1-.1h.1l.1.1.1.1h.1l-.1.1v.30000000000000004l.1.1v-.30000000000000004l.1-.1.1-.1h.1v.4l.1-.1h.1l.1-.1h-.2v-.2h.30000000000000004v.2h.2v.2h.1l.1.1.2.1.1.1.1.1v.1l.1.1h-.1v.1l.1.1h.1l.1.1.1.1.1.1v.2l-.1.1v.1l-.1-.1v-.2l-.2-.1zm-1-.1v-.1l.1-.1h.1v.2h-.2zm-1.4-2v-.30000000000000004h.2l.1.1v.2l-.1.1-.2-.1zm.1.6l-.1.2h-.2v-.2h-.1v-.2l.1.1v-.2h.30000000000000004v.30000000000000004zm.3-.6v.2-.2zm1.2-4.4h.2v.1h.30000000000000004l.1.2h-.4v-.2h-.1l-.1-.1zm-.8 4.2v-.1h.1l-.1-.1v-.4l.1-.2v-.1h.2l.1-.1h.7999999999999999v.2l-.1.1-.3.1v.1l-.1.1h-.1v.2h-.1v.1l-.1.1.1.1-.1.1h-.1l.1.1v.2h-.1l-.1-.1-.1.1h-.30000000000000004v-.4h-.1v-.2h.1v.1h.2zm-.7-.6v.1h.1v-.1l.1-.1v.1h.1v.30000000000000004l.1-.1v-.1l.1.1v.2h-.30000000000000004v-.1h-.1l-.1-.1v-.1h-.1l-.2-.1h.3zm-.7 0h.1v.1h-.2v.2h.1v-.1h.1v.1l.1.1v-.2h.1v-.1h.2l-.1.1v.2l.1.1-.1.1-.1.1h-.1l.1.1h-.30000000000000004l-.1-.1v-.1h.1v-.1h-.1l-.1-.1v-.2h-.1v-.1h.2l.1-.1zm-1.1.8v-.1s.1-.1.1 0l.1-.1.1-.1v-.1h.2v.1l.1.1v.2h-.30000000000000004l-.1.1-.2-.1zm-1.1-2.9zm-2.6 1.4zm-1 .9l.1.1h-.1v-.1zm-.3-.2zm4.4 17.7l-.1-.1.1.1zm13-1.5v.4l-.1.1-.1.1-.1.1-.1.1-.1.1-.1.1-.1.1-.1.1-.1.1-.1.1-.1.1-.1.1v.5l-.1.1v.2l-.1.1v.30000000000000004l-.1.1-.1.1-.2.2h-.2l-.1.1h-.1l-.1.1h-.2l-.1.1h-.1l-.1.1h-.1l-.1.1-.1.1-.1.1-.1.1-.1.1-.1.1v.1l-.1.1h-.1l-.1.1-.1.1-.1.1h-.1l-.4.2-.1.1-.1.1-.1.1h-.2l-.1.1h-3.1000000000000014l.1-.1h.2v-.4h-1l-.2-.1h-.2l-.1-.1v-.1l-.1-.1v-.1h-.1l-.1-.1v-.1l-.1-.1v-.30000000000000004l-.1-.1-.1-.1v-.1l-.1-.1-.1-.1h-.1l-.1-.1v-.2l.1-.1h.2v-.2h-.1v.1l-.1-.1h-.1v-.2h.1v-.1l.1-.1v-.1h.30000000000000004v-.1h.1v-.1l.1-.1h.1l.1-.1.1-.1-.1-.1v-.5l-.1-.1-.1-.1-.1-.1.1-.1h-.1l-.1-.1-.1-.1h-.1l-.1.1h-.2v.1l.1.1h-.2v-.1h-.1l-.1-.1h-.30000000000000004l-.1-.1h-.1v-.1l-.1-.1-.1-.1-.1-.1-.1.1h-.1v-.30000000000000004l-.1-.1-.1-.1-.1-.1-.1-.1-.1-.1h.1l-.1-.1h-.2l-.1-.1h-.1l-.1-.1-.1-.1h-.1l-.1-.1-.1-.1.3.2-.1-.1-.1-.1-.1-.1-.1-.1-.1-.1h-.4l-.1-.1-.1-.1-.1-.1-.1-.1-.1-.1-.1-.1-.1-.1-.1-.1-.1-.1-.1-.1-.1-.1h-.1l-.1-.1-.1-.1-.1-.1-.1-.1-.1-.1-.1-.1v-.1h.1v-.1h.1v-.1l-.1-.1v-.30000000000000004l-.1-.1v-.1l-.1-.1-.1-.1-.1-.1v-.2l-.1-.1-.1-.1v-.4l-.1-.1v-.1l-.1-.1-.1-.2v-.7l-.1-.1v-.1h-.1l-.1-.1v.5l.1.1v.6l.1.2v.5h.1v.2l-.1.1v-.2l-.1-.1-.1-.1-.1-.1-.1-.1h.1v-.2l-.1-.1v-.1h-.1l-.1-.1v-.2l-.1-.1h.1v-.4l-.1-.1v-1.2000000000000002h.2l-.1-.1-.1-.1v-.7999999999999999l-.1-.1v-.7999999999999999l.1-.1.1-.1v-.2l.1-.1.1-.1.1-.1h.3l.1-.1.1-.1v-1.5000000000000002l.1.1v-.2l.1-.1v-.5h.1v-.1l.1-.1h-.1v-.2l-.1.1v-.4l.1-.1h-.1l.1-.1h.1v-.1h-.2l.1-.1.1-.1h.1v-.4l.1-.1h-.1v-.8999999999999999l-.1.1h-.1v-.1h-.2l.1-.1h.1v-.1h.1l.1-.1h-.4v.1h-.5s.2.1.1.1h.2v.1l-.1-.1v.1h-.30000000000000004l.1-.2-.1-.1h-.2v-.1l-.1-.1h.1l.1.1h.2l.1-.1.1-.1v-.1h-.1l.1-.1v-.1l.1-.1h.1l.1-.1h-.1v-.1l.1-.1v-.1l.1-.1.1-.1h.4l-.1.1h.1v.1h.1l.1-.1v-.30000000000000004h.2v-.2h.1l.1.1.1.1v.1h-.1v.1h.1l.1-.1.1-.1.1-.1.1-.1.2-.1h.1v.1l.2-.1h.30000000000000004v.1l.1.1v.1h.1v.1l-.1.1v.1l-.1.1v1.3l.1-.1h.2v.1h.30000000000000004l-.1.1h.1l.1-.1v.4l.2-.1.1.1v.2l.1.1.1.1.1.1v-.1l-.1-.1v-.1l.1-.1h.1l.1.1h.1v-.1h-.1l-.1-.1v-.2l.2-.1h.4l-.1.1h.1v.1h.1l.1.1.1-.1.1-.1h.1v.2h-.3v.2l-.1.1v.1l.1.1.1.1-.1.1h-.1v.1h-.2v.1l.1.1.1.1.1.1h.1l.1-.1.1-.1-.1-.1h.1l.1.1v.1h-.1v.1l.1.1.1-.1.1-.1v-.1l.1-.1-.1-.1v-.1l.2-.1.1-.1h.1l-.1.1v.4l-.1.1.1.1v.2l.1-.1.1.1v.2l.1.1v.2l.1-.1v-.2l.1-.1v-.30000000000000004h.2v.1h.1v.1h-.1v.1l.1.1v.1h-.2l-.1.2-.1-.1v.1l.2.1.1.1.1.1v.1l.1.1-.1.1-.1-.1-.1-.1h-.1l-.1.1h-.2v-.1h-.1l.2-.1v-.30000000000000004l-.1.1v.1l-.1.1-.1.1h-.2l-.1.1v.1h-.2v.1h-.1l-.1.1-.1.2-.1.1-.1.1-.1.1v.2h.2v.4h.2l.1.1h.2l.1.1.1.1.1.1.1.1.1.1h.2l.1.1v.2l-.1.2v.1l.1.1.1.1v.1l.1.1v-.1l.1-.1.1-.1-.1-.1v-.4l.1-.1.1-.1.1-.1.1-.1v-.5h-.1v-.1h.1l.1-.1v-.2l-.1-.1v-.2l-.1-.1v-.1l.1-.1h.4l.1.1.1.1v.1l.1.1h.2v.4l.1.1h.1l.1.1.2.1v-.1l.1-.1v-.1l-.1-.1v-.2l.1.1.1.1.1.1.1.1.1.1h.3v.1h.1v.2l.1.1h.1v.1h.1l.1.1h.2l-.1.1h.1v.1h.1l.1.1v.2l-.1.1-.1.1-.1.1-.1.1v.2l-.1.1h-.8999999999999999l-.1.1-.1.1v.1h-.1l-.1.1-.2.1-.1.1v.1l-.1.1v.1l-.1.1h.1l.1-.1.1-.1.1-.1.1-.1.4-.2h.1l.1-.1h.30000000000000004l.1.1v.1l-.1.1-.1.1v.2l.2-.1h.2l-.1.1v.1h-.1l.1.1h.1l.1-.1h.1v-.1l.1-.1.1.1-.1.1-.1.1v.1h-.2l-.1.1h.3l-.1.1h-.1v.1l-.1.1h-.2l-.1.1h-.2l.1-.1.1-.1v-.1h.1l.1-.1h.1l-.4-.1v.1h.1l-.1.1h-.1l-.1.1v.2h.1l-.1.1v.30000000000000004h.1v.1h.1v.7h-.6l-.1.1-.1.1h.1v.1l-.1.1-.1.1v-.1h-.1v.1l.1.1v.1l-.1.1v-.1h-.1v-.1h-.1v-.30000000000000004h-.1v.30000000000000004h-.1l.1.1v.2l.1.1v.4h-.1l-.1.1h.1l-.1.1h-.1l-.1.1-.1.1h-.1l-.1.1-.1.1-.1.1-.1.1-.1.1-.1.1-.1.1-.1.1v.4l.1.1v.5l-.1.1h-.2v-.1l-.1-.1v-.1l-.1-.1-.1-.1v-.2h-.1v-.30000000000000004l-.1-.1-.1-.1h-.30000000000000004v-.1l-.1-.1-.1-.1h-.30000000000000004v-.1h-.30000000000000004v.1h-.4v-.1l-.1-.1h-.2l-.1-.1h-.30000000000000004v-.1h-.1v.1h-.30000000000000004l-.1.1h-.1l-.1.1v.4l-.1.1-.1.1-.1.1v.30000000000000004l-.1.1v.1h.1v.30000000000000004l.1.1v.2l.1.1.1.1.1.1.1.1h.4l.1.1h.1v-.1h.2v-.4h.7999999999999999v.1l-.1.1v.4l-.1.1v.2l-.1.1-.1.1.1.1.1.1h.1l.1.1h.6l.1.1h.1v.2l-.1.1v.6l.1.1v.1l.1-.1.1.1v.1h.1l.1.1h.30000000000000004l.1-.1h.30000000000000004l.1.1.1.1.1.1.1.1v-.1l.1-.1.1-.1h.1v-.2l.1-.1h.2l.1-.1h.30000000000000004v.1h.1l.1-.1.1-.1h.1l.1-.1v.1l-.1.1h.6000000000000001v-.1l.1-.1v.1h.30000000000000004v.2h.6l.1-.1.1-.1h.4v-.1h.2v.1l-.1.1h-.1v-.1l-.2.1.3.2h.30000000000000004v.2l.2-.1h.30000000000000004v.2h1.6000000000000003l.1.1v.1l.1.1v.1h.1v.1l-.1.1-.1.1-.1.1v.2l.1-.1.1.1v-.2l.1-.1h.30000000000000004v.2h.1l.1-.2.1-.1h.4l.1-.1v.1h.1v.1l.1-.1.1-.1h.5l.2-.7h.8999999999999999l.1-.1h.1v.1zm-16-12.9l-.1.1v.2h-.1v.1l-.1.1v-.30000000000000004l.1-.1v-.1l.1-.1.1.1zm6.2 2.1l.1-.1v.1h-.1zm-.1.7h-.2.2zm-.2-2.2l.1-.1h.1l-.2.1zm3.2 10.4l-.1.1h-.30000000000000004s0-.1.1-.1h.30000000000000004zm-1.3.1l-.1.2-.1-.1-.1-.1v-.1l-.1-.1h-.1l.1-.1h.1l.1.1h.5v.1h.1l-.1.1h.2l.1.1-.1.1-.1-.1h-.2l-.2-.1zm-.3-.6l.1-.1h.1l-.2.1zm-.7.2h-.7l.1-.1.1-.1v-.1h-.2l-.1-.1v-.1h.1l.1.1.1.1h.1l.1.1h.2l.1.2.1-.1-.1.1zm-.1.4l-.2.1h-.2l-.2-.1h.6000000000000001zm-.3-1.3l-.2-.1v-.1h.1v.1l.1.1zm-.1-.6l.1.1v.1l-.1-.2zm.2.3l.1.1v.1l-.1-.2zm-.6.7h-.2l-.1-.1h.1l.2.1zm11.7-12.5h.30000000000000004l.1.1v.1h-.1l-.3-.2zm.3 1.2v-.30000000000000004h.1l.1.1v.2h-.1v.1l-.1.1v-.2zm-.5 1.3l-.1-.2h.1v.2zm.1-.9l-.1-.1-.1-.2h.2l.1.1.1.1.1.1v.2h-.1l-.2-.2zm2.6 6.6v.30000000000000004l-.1.4v.4l-.1.1v.7999999999999999h-.8999999999999999v-.30000000000000004h-.7v-.30000000000000004l-.1-.1h-.1v-.7999999999999999l-.1-.1-.1-.1v-.2h-.2v-1.7000000000000006l.1-.1v-.6h-.1l-.1-.2v-1.3h.2v-.30000000000000004h.1v-2.300000000000001h.1v-.1l.1.1v.1h.2l.1.3.1.1v.2l.1.1v-.1h.1v-.4l.1.1v-.6l-.2-.2-.1-.1v-.4h.1v-.5c1 1.9 1.6 4.1 1.6 6.5 0 .5-.1.9-.1 1.3zM12.1 18.8l-.1-.1-.1.1h.1zM15.4 16.3l.1-.1h-.30000000000000004v.1h.1zM8 12.3v.1l.2-.1v-.30000000000000004l-.1-.1h-.1v.2h-.1l.1.1zM17.7 5.3zM16.4 6.4l.1-.1h-.1zM18.5 7.9l.1.1v-.2h-.1zM15 3.1v-.1h-.30000000000000004l.2.1zM15.9 23.2v.1h.1v-.1l-.1-.1v-.1l-.1.1zM17.7 3.1h-.2l.1.1h.1zM17.5 3.3l.1-.1h-.30000000000000004v.1h.1zM17.9 3.1h.2v-.1h-.4v.1h.1zM14.6 7.3v-.1h-.1v-.1h-.1l-.1.1h.1v.2l.1-.1zM14.7 7.1l.1-.1h-.30000000000000004v.1h.1zM14.4 7.4h-.1l-.1.1h.1zM13.9 8.7l.1-.1.1-.1h-.1l-.1.1-.1.1zM14.4 7.8h-.4l.1.1h.4v-.1zM17.5 14.3z"/></g><path fill="#fff" d="M15.2 28.1h-.1"/><path fill="#fff" d="M15.2 28.1h.1z"/></svg>