<?xml version="1.0" encoding="UTF-8" standalone="no"?>
<svg xmlns="http://www.w3.org/2000/svg" version="1.1" width="342" height="279"
	viewBox="0 0 342 279">
	<defs>
		<style>
			#twitter-bird { fill: #6D6E71; }
			#twitter-bird:hover { fill: #6babe1; }
		</style>
    </defs>
    <g transform="matrix(1.25,0,0,-1.25,0,278.75)">
    	<path id="twitter-bird" 
           d="M 85.98,0 C 54.305,0 24.822,9.285 0,25.199 c 4.388,-0.518 8.853,-0.783 13.38,-0.783 26.278,0 50.463,8.967 69.659,24.01 -24.544,0.453 -45.258,16.669 -52.395,38.953 3.424,-0.655 6.938,-1.006 10.552,-1.006 5.116,0 10.071,0.685 14.778,1.967 -25.66,5.152 -44.993,27.822 -44.993,54.998 0,0.236 0,0.471 0.004,0.705 7.563,-4.201 16.211,-6.724 25.406,-7.015 -15.05,10.058 -24.953,27.226 -24.953,46.685 0,10.279 2.766,19.914 7.594,28.198 27.664,-33.934 68.993,-56.264 115.609,-58.603 -0.956,4.105 -1.453,8.386 -1.453,12.782 0,30.975 25.114,56.088 56.091,56.088 16.132,0 30.709,-6.812 40.941,-17.713 12.776,2.516 24.78,7.184 35.617,13.611 -4.188,-13.097 -13.081,-24.089 -24.662,-31.031 11.346,1.356 22.156,4.371 32.215,8.832 -7.52,-11.248 -17.03,-21.127 -27.988,-29.035 0.108,-2.405 0.162,-4.824 0.162,-7.256 C 245.564,85.467 189.148,0 85.98,0" />
    </g>
</svg>